<svg xmlns="http://www.w3.org/2000/svg" viewBox="0 0 97.58 97.58"><defs><style>.cls-1{fill:#b2b2b2;}.cls-2{fill:#1d1d1b;}</style></defs><g id="Capa_2" data-name="Capa 2"><g id="Capa_1-2" data-name="Capa 1"><polygon class="cls-1" points="48.79 7.63 56.52 0 61.51 9.64 71.22 4.78 72.99 15.49 83.72 13.86 82.09 24.59 92.81 26.36 87.94 36.07 97.58 41.06 89.96 48.79 97.58 56.52 87.94 61.51 92.81 71.22 82.09 72.99 83.72 83.72 72.99 82.09 71.22 92.81 61.51 87.94 56.52 97.58 48.79 89.96 41.06 97.58 36.07 87.94 26.36 92.81 24.59 82.09 13.86 83.72 15.49 72.99 4.78 71.22 9.64 61.51 0 56.52 7.63 48.79 0 41.06 9.64 36.07 4.78 26.36 15.49 24.59 13.86 13.86 24.59 15.49 26.36 4.78 36.07 9.64 41.06 0 48.79 7.63"/><path class="cls-2" d="M46.29,25.21l.06-1.75.16-1.65,1.69-.08.36,1.77.26,1.6v.09l1.37-.06,0-.09-.33-1.62-2-9.5L46.61,14l-1.08,9.51-.21,1.77v.09l1,0Zm.61-7,.16-2.54h0l.36,2.52L48,21,46.6,21Z"/><path class="cls-2" d="M71.35,41.3h-.1l.21.94h.09L73.29,42,75,41.89l.36,1.65-1.68.66-1.54.52-.08,0,.29,1.34.08,0,1.54-.6,9-3.61-.26-1.19-9.55.56Zm7.22.35,2.53-.28v0l-2.42.79L76,43.24l-.31-1.4Z"/><path class="cls-2" d="M49.25,49.56c0,4.8,1.3,7.34,3.12,7.34,1,0,1.77-.76,2.37-2.27a17.75,17.75,0,0,0,.9-6.3c0-4.81-1.3-7.34-3.11-7.34-1,0-1.79.76-2.39,2.27A17.56,17.56,0,0,0,49.25,49.56ZM51.69,48c0-5.36.08-6.8.57-6.8.27,0,.48.18.64.61.35.93.31,3.61.31,8,0,5.36-.08,6.8-.58,6.8-.24,0-.47-.18-.61-.6C51.67,55.08,51.69,52.45,51.69,48Z"/><path class="cls-2" d="M36.53,28.39l0,.09.88-.41,0-.09-.62-1.64-.48-1.59L37.83,24l1,1.48.85,1.39,0,.08L41,26.41h0l2-.49c1.65-.4,2.19-2.49,1.33-6.06s-2.33-5.33-4-4.94l-2.09.5,0,.09.31,1.1,2.07,8.59.23,1.12v0l0,0L40,25l-5.52-8-1.11.52L36,26.67Zm3.23-12.5.6-.15c1-.24,2,1.64,2.83,5S43.5,25,43,25.14a4.82,4.82,0,0,1-1,.1Zm-5.32,3h0L35.77,21l1.61,2.36-1.3.61-.81-2.73Z"/><path class="cls-2" d="M38.7,56.9c1.73,0,2.45-1.22,2.45-3.22V44l.46-2.68v-.12H40v.12L41,44v9.85c0,1.24-.39,2-1.24,2s-1.22-.7-1.22-2.21V42.91l.23-1.57v-.12H35.86v.12l.26,1.57V53.62C36.12,55.74,37,56.9,38.7,56.9Z"/><polygon class="cls-2" points="34.76 29.83 35.73 29.15 31.48 20.54 30.72 18.96 30.68 18.87 29.85 19.46 29.89 19.54 30.75 21.02 33.01 25.53 34.4 27.96 34.37 27.98 32.54 25.86 28.97 22.16 27.88 20.95 27.82 20.89 26.72 21.66 27.95 22.9 34.76 29.83"/><path class="cls-2" d="M76.74,49.2a.78.78,0,0,0,.79.81.79.79,0,0,0,.81-.78.8.8,0,0,0-.79-.8A.79.79,0,0,0,76.74,49.2Z"/><path class="cls-2" d="M65,56.67h3v-.12L67.51,55,65.27,41.22h-.85l-2.08,13-.55,2.37v.12h1.52v-.12l-.78-2.37.33-2.12h1.87l.5,2.92L65,56.55Zm-2.08-4.78.41-2.58.47-3,.52,3,.43,2.58Z"/><path class="cls-2" d="M61.7,48.78a5.73,5.73,0,0,0,.85-3.22c0-2.86-1.2-4.34-3.59-4.34H56.24v.12l.27,1.57V55l-.27,1.57v.12h2.91v-.12L58.88,55V50A3.14,3.14,0,0,0,61.7,48.78Zm-2.82-7.4H59c.85,0,1.12,1.61,1.12,4.43,0,3.2-.58,4-.93,4a.77.77,0,0,1-.33-.1Z"/><path class="cls-2" d="M65.52,24.81c-2.4,2.87-2.92,5-1.76,6s3.33.06,5.78-2.86,2.91-5,1.75-6S68,21.89,65.52,24.81Zm5-2.36c.26.22.32.56.2,1.06A14.18,14.18,0,0,1,68,27.78c-2,2.43-3,2.91-3.46,2.53a1,1,0,0,1-.2-1A14.28,14.28,0,0,1,67.12,25C69.16,22.56,70.11,22.08,70.56,22.45Z"/><polygon class="cls-2" points="68.44 35.62 68.36 35.66 69.09 36.81 69.16 36.76 70.11 36.11 77.58 31.41 78.58 30.84 78.65 30.79 77.93 29.64 77.86 29.69 76.91 30.34 69.43 35.04 68.44 35.62"/><polygon class="cls-2" points="56.92 26.39 56.88 26.47 57.81 26.94 57.85 26.86 58.59 25.21 61.99 18.45 62.01 18.45 61.44 20.41 60.62 23.92 61.27 24.24 63.63 21.53 64.92 19.92 64.93 19.93 61.22 27.28 60.67 28.28 60.63 28.36 61.82 28.96 61.86 28.88 62.34 27.84 66.19 20.21 66.9 18.96 66.94 18.88 65.54 18.18 63.16 20.89 61.97 22.45 61.95 22.45 62.51 20.57 63.33 17.06 61.96 16.37 61.92 16.45 61.36 17.73 57.79 24.8 56.92 26.39"/><path class="cls-2" d="M69.52,37.17l-.09,0,.85,1.94c.68,1.56,2.82,1.72,6.19.25s4.85-3.22,4.18-4.75l-.86-2-.08,0-1,.5-8.1,3.53Zm10.08-3,.25.57c.4.93-1.26,2.28-4.4,3.65s-4.19,1.05-4.4.57a4.75,4.75,0,0,1-.26-.94Z"/><polygon class="cls-2" points="53.99 25.69 54.19 24.56 55.01 20.44 57.04 16.63 57.85 15.12 57.9 15.04 56.88 14.83 56.83 14.92 56.18 16.46 55.48 17.77 54.8 19.26 54.77 19.25 54.77 17.62 54.64 15.63 54.62 14.49 54.63 14.39 53.31 14.12 53.32 14.23 53.42 15.39 53.75 20.26 52.94 24.31 52.67 25.43 52.66 25.52 53.97 25.78 53.99 25.69"/><polygon class="cls-2" points="66.05 32.53 65.98 32.59 68.38 35.54 69.1 34.95 69.05 34.88 68.05 33.9 67.42 33.11 74.62 27.26 75.54 26.57 75.61 26.52 74.76 25.46 74.69 25.52 73.83 26.28 66.97 31.85 66.05 32.53"/><path class="cls-2" d="M60.56,69.41l0-.09-.88.39,0,.09.58,1.65.44,1.6-1.54.68-1-1.51-.82-1.4,0-.08-1.21.53h0L54,71.72c-1.66.36-2.24,2.43-1.46,6s2.21,5.38,3.85,5l2.09-.46,0-.09-.29-1.11-1.88-8.63-.2-1.09L57,72.75l5.34,8.12,1.11-.49L61,71.14ZM57.07,81.83l-.61.13c-1,.21-2-1.68-2.71-5s-.22-4.31.3-4.43a4.86,4.86,0,0,1,1-.07ZM62.43,79l0,0-1.26-2.22-1.55-2.39,1.31-.58.75,2.75Z"/><path class="cls-2" d="M50.72,72.36l-.09,1.75-.21,1.65-1.69,0L48.41,74l-.22-1.61v-.09l-1.37,0,0,.09.29,1.62,1.8,9.54,1.22,0,1.29-9.48.25-1.77v-.09l-1,0Zm-.77,7-.21,2.53h0l-.31-2.53-.52-2.81,1.44,0Z"/><path class="cls-2" d="M49.23,56.55,48.68,55,47.4,48.59a4.83,4.83,0,0,0,1-3.29c0-2.66-1.09-4.08-3.4-4.08H42.12v.12l.33,1.57V55l-.33,1.57v.12h3.05v-.12L44.82,55v-5.4a3.57,3.57,0,0,0,.42,0l1.44,7.11h2.55Zm-3.95-7.19a.76.76,0,0,1-.46-.25V41.38c1,0,1.24,1.53,1.24,4.18C46.06,48.61,45.63,49.36,45.28,49.36Z"/><polygon class="cls-2" points="40.13 70.94 40.17 70.86 39.26 70.37 39.21 70.45 38.44 72.09 34.89 78.77 34.87 78.76 35.48 76.81 36.38 73.33 35.74 72.99 33.32 75.64 32 77.23 31.99 77.22 35.85 69.96 36.43 68.97 36.48 68.89 35.29 68.26 35.25 68.34 34.75 69.37 30.73 76.91 30 78.14 29.95 78.22 31.34 78.96 33.78 76.3 35 74.77 35.02 74.77 34.42 76.64 33.52 80.12 34.87 80.84 34.91 80.76 35.5 79.5 39.23 72.51 40.13 70.94"/><polygon class="cls-2" points="62.37 68.01 61.38 68.67 65.44 77.37 66.17 78.97 66.2 79.05 67.04 78.48 67 78.4 66.18 76.9 64.02 72.35 62.69 69.88 62.71 69.86 64.49 72.03 67.98 75.8 69.04 77.03 69.1 77.1 70.22 76.35 69.02 75.08 62.37 68.01"/><polygon class="cls-2" points="43.05 71.71 42.83 72.83 41.92 76.94 39.8 80.7 38.95 82.19 38.91 82.28 39.92 82.5 39.97 82.42 40.65 80.89 41.39 79.6 42.1 78.12 42.13 78.13 42.09 79.76 42.17 81.75 42.16 82.89 42.16 83 43.47 83.29 43.46 83.18 43.39 82.03 43.17 77.14 44.07 73.11 44.36 72 44.38 71.91 43.07 71.62 43.05 71.71"/><path class="cls-2" d="M80.69,59.54l-6.85-2.82c-1.66-.68-2.85-.49-3.42.9s.08,2.31,1.77,3l6.35,2.61,1.58.71.09,0L80.6,63l-.09,0-1.63-.57-6.58-2.7c-1.08-.44-1.34-1-1.09-1.6s.82-.77,2.09-.25l6.91,2.84,1.05.47.08,0L81.85,60l-.08,0Z"/><path class="cls-2" d="M77.46,52.43c-3.56-.71-5.52-.22-5.86,1.5a2.65,2.65,0,0,0,.23,1.69l1.21.24v-.09c-.6-.72-.77-1.06-.68-1.49s.42-.79,1.1-.88a16.65,16.65,0,0,1,4.7.55c3.44.69,4.14,1.45,4,2.26-.07.35-.26.68-.9,1.21l0,.09,1.15.23A3.26,3.26,0,0,0,83,56.46C83.33,54.59,81.49,53.25,77.46,52.43Z"/><polygon class="cls-2" points="71.63 73.43 65.74 66.84 65.01 65.96 64.95 65.89 63.94 66.8 64 66.86 64.8 67.69 70.68 74.28 71.41 75.16 71.47 75.23 72.48 74.33 72.42 74.26 71.63 73.43"/><polygon class="cls-2" points="78.01 65.44 70.57 60.69 69.63 60.03 69.56 59.98 67.51 63.18 68.3 63.68 68.35 63.61 68.97 62.36 69.51 61.51 77.33 66.51 78.27 67.17 78.35 67.21 79.08 66.07 79 66.02 78.01 65.44"/><polygon class="cls-2" points="75.95 69.17 75.27 70.21 74.99 70.53 67.96 64.47 67.12 63.69 67.06 63.63 66.17 64.65 66.24 64.71 67.13 65.43 74.16 71.49 73.89 71.81 72.95 72.64 72.89 72.7 73.61 73.32 76.72 69.72 76.01 69.1 75.95 69.17"/><path class="cls-2" d="M26.05,55.71h.09L26,54.76h-.09l-1.74.2L22.46,55l-.32-1.66,1.69-.62,1.55-.49h.09l-.27-1.35-.08,0-1.55.57-9.1,3.4.23,1.2,9.56-.35Zm-7.21-.52-2.54.22v0l2.43-.73,2.68-1,.28,1.41Z"/><path class="cls-2" d="M20,45.73q5.37,1,5.83-1.62a2.82,2.82,0,0,0-.26-1.69l-1.22-.21,0,.09c.63.7.8,1,.72,1.47s-.4.8-1.08.91a17.24,17.24,0,0,1-4.71-.44c-3.46-.62-4.17-1.36-4-2.17a2.17,2.17,0,0,1,.88-1.24l0-.09L15,40.53a3.55,3.55,0,0,0-.55,1.3C14.1,43.71,16,45,20,45.73Z"/><polygon class="cls-2" points="19.18 32.74 26.72 37.33 27.68 37.97 27.75 38.01 29.73 34.77 28.93 34.28 28.88 34.36 28.29 35.62 27.76 36.48 19.83 31.66 18.88 31.02 18.8 30.98 18.1 32.14 18.17 32.18 19.18 32.74"/><path class="cls-2" d="M16.62,38.72l6.93,2.65c1.67.64,2.85.43,3.39-1s-.13-2.31-1.83-3L18.69,35l-1.6-.67-.08,0-.37,1,.09,0,1.65.54L25,38.34c1.08.41,1.35,1,1.12,1.57s-.8.79-2.08.3l-7-2.68L16,37.08l-.08,0-.49,1.26.09,0Z"/><polygon class="cls-2" points="21.16 28.98 21.82 27.92 22.09 27.59 29.25 33.49 30.1 34.26 30.17 34.31 31.03 33.27 30.96 33.21 30.05 32.52 22.89 26.61 23.16 26.29 24.07 25.44 24.13 25.37 23.4 24.77 20.37 28.44 21.1 29.05 21.16 28.98"/><polygon class="cls-2" points="25.39 24.61 31.41 31.07 32.16 31.94 32.22 32 33.21 31.08 33.15 31.01 32.34 30.2 26.31 23.75 25.57 22.88 25.5 22.82 24.51 23.74 24.57 23.81 25.39 24.61"/><polygon class="cls-2" points="30 56.55 30 56.67 35.28 56.67 35.28 54.92 35.13 54.92 33.08 56.51 32.64 56.51 32.64 48.53 34.15 49.5 34.29 49.5 34.29 47.27 34.15 47.27 32.64 48.41 32.64 41.38 32.93 41.38 35.03 42.82 35.18 42.82 35.18 41.22 30 41.22 30 41.34 30.27 42.91 30.27 54.98 30 56.55"/><polygon class="cls-2" points="31.14 64.6 31.21 64.54 28.89 61.54 28.15 62.11 28.2 62.19 29.17 63.19 29.79 63.99 22.45 69.67 21.52 70.34 21.45 70.4 22.28 71.47 22.35 71.41 23.23 70.67 30.21 65.26 31.14 64.6"/><path class="cls-2" d="M19.22,49a.79.79,0,0,0,.8.78.8.8,0,0,0,.8-.79.78.78,0,0,0-.81-.79A.77.77,0,0,0,19.22,49Z"/><polygon class="cls-2" points="28.82 61.46 28.9 61.41 28.2 60.25 28.13 60.3 27.17 60.92 19.59 65.45 18.58 66 18.5 66.05 19.2 67.21 19.28 67.16 20.24 66.54 27.82 62.01 28.82 61.46"/><path class="cls-2" d="M26.71,60.28l1.08-.39.08,0-.8-2c-.65-1.58-2.78-1.79-6.19-.4S16,60.62,16.6,62.16l.82,2,.08,0,1-.48Zm-9.3,1.78c-.38-.93,1.31-2.24,4.47-3.54s4.22-1,4.42-.48a4.88,4.88,0,0,1,.24,1l-8.9,3.64Z"/><path class="cls-2" d="M31.51,72.33c2.46-2.81,3-5,1.89-6s-3.33-.13-5.84,2.74-3,5-1.89,6S29,75.2,31.51,72.33Zm-5.1,2.25a1,1,0,0,1-.18-1.06,14.15,14.15,0,0,1,2.91-4.21c2.09-2.39,3.06-2.85,3.51-2.45a1,1,0,0,1,.19,1,14.25,14.25,0,0,1-2.93,4.2C27.82,74.51,26.85,75,26.41,74.58Z"/></g></g></svg>