<?xml version="1.0" encoding="utf-8"?>
<!-- Generator: Adobe Illustrator 25.0.0, SVG Export Plug-In . SVG Version: 6.00 Build 0)  -->
<svg version="1.1" id="Layer_1" xmlns="http://www.w3.org/2000/svg" xmlns:xlink="http://www.w3.org/1999/xlink" x="0px" y="0px"
	 viewBox="0 0 119.4 38.2" style="enable-background:new 0 0 119.4 38.2;" xml:space="preserve">
<style type="text/css">
	.st0{fill:#D66F46;stroke:#1D1D1B;stroke-width:0.5;stroke-miterlimit:10;}
</style>
<g>
	<g>
		<path class="st0" d="M118.5,20.1H86.8c-0.4,0-0.7-0.3-0.7-0.7V0.9c0-0.4,0.3-0.7,0.7-0.7h31.7c0.4,0,0.7,0.3,0.7,0.7v18.5
			C119.2,19.8,118.9,20.1,118.5,20.1z"/>
		<path class="st0" d="M99,17.2c-0.2-0.2-0.2-0.5,0-0.7l0.9-0.9c0.2-0.2,0.2-0.5,0-0.7L99,13.9c-0.2-0.2-0.2-0.5,0-0.7l0.9-0.9
			c0.2-0.2,0.2-0.5,0-0.7L99,10.5c-0.2-0.2-0.2-0.5,0-0.7l0.9-0.9c0.2-0.2,0.2-0.5,0-0.7L99,7.2c-0.2-0.2-0.2-0.5,0-0.7l0.9-0.9
			c0.2-0.2,0.2-0.5,0-0.7L99,3.8c-0.2-0.2-0.2-0.5,0-0.7l0.9-0.9c0.2-0.2,0.2-0.5,0-0.7l-1-1c-0.1-0.1-0.2-0.2-0.4-0.2H86.9
			c-0.4,0-0.8,0.4-0.8,0.8v1.8C86.1,4,85.2,5,84,5h-1.1v3.9H1.5c-0.7,0-1.3,0.6-1.3,1.3v0c0,0.7,0.6,1.3,1.3,1.3h81.4v3.9H84
			c1.1,0,2.1,0.9,2.1,2.1v1.8c0,0.4,0.4,0.8,0.8,0.8h11.7c0.1,0,0.3-0.1,0.4-0.2l1-1c0.2-0.2,0.2-0.5,0-0.7L99,17.2z"/>
	</g>
	<g>
		<path class="st0" d="M0.9,18.1l31.7,0c0.4,0,0.7,0.3,0.7,0.7v18.5c0,0.4-0.3,0.7-0.7,0.7l-31.7,0c-0.4,0-0.7-0.3-0.7-0.7V18.8
			C0.2,18.4,0.6,18.1,0.9,18.1z"/>
		<path class="st0" d="M20.4,20.9c0.2,0.2,0.2,0.5,0,0.7l-0.9,0.9c-0.2,0.2-0.2,0.5,0,0.7l0.9,0.9c0.2,0.2,0.2,0.5,0,0.7L19.5,26
			c-0.2,0.2-0.2,0.5,0,0.7l0.9,0.9c0.2,0.2,0.2,0.5,0,0.7l-0.9,0.9c-0.2,0.2-0.2,0.5,0,0.7l0.9,0.9c0.2,0.2,0.2,0.5,0,0.7l-0.9,0.9
			c-0.2,0.2-0.2,0.5,0,0.7l0.9,0.9c0.2,0.2,0.2,0.5,0,0.7L19.5,36c-0.2,0.2-0.2,0.5,0,0.7l1,1c0.1,0.1,0.2,0.2,0.4,0.2h11.7
			c0.4,0,0.8-0.4,0.8-0.8v-1.8c0-1.1,0.9-2.1,2.1-2.1h1.1v-3.9l81.4,0c0.7,0,1.3-0.6,1.3-1.3v0c0-0.7-0.6-1.3-1.3-1.3l-81.4,0v-3.9
			h-1.1c-1.1,0-2.1-0.9-2.1-2.1v-1.8c0-0.4-0.4-0.8-0.8-0.8l-11.7,0c-0.1,0-0.3,0.1-0.4,0.2l-1,1c-0.2,0.2-0.2,0.5,0,0.7L20.4,20.9z
			"/>
	</g>
</g>
</svg>
